<?xml version="1.0" encoding="UTF-8"?>
<svg xmlns="http://www.w3.org/2000/svg" xmlns:xlink="http://www.w3.org/1999/xlink" viewBox="0 0 40 40" width="40px" height="40px">
<g id="surface7340487">
<path style=" stroke:none;fill-rule:nonzero;fill:rgb(24.313726%,24.313726%,24.313726%);fill-opacity:1;" d="M 27.300781 6.753906 L 26.828125 6.582031 C 27.414062 4.964844 26.53125 2.515625 24.515625 1.785156 C 22.484375 1.050781 20.121094 1.800781 19.554688 3.359375 L 19.085938 3.191406 C 19.738281 1.382812 22.410156 0.492188 24.6875 1.316406 C 26.96875 2.140625 27.964844 4.914062 27.300781 6.753906 Z M 27.300781 6.753906 "/>
<path style=" stroke:none;fill-rule:nonzero;fill:rgb(72.941178%,10.196079%,100%);fill-opacity:1;" d="M 29.03125 23.75 L 28.761719 23.75 L 31.871094 13.949219 C 33.210938 9.738281 30.882812 5.242188 26.671875 3.902344 L 22.652344 2.628906 C 18.441406 1.289062 13.941406 3.621094 12.605469 7.832031 L 11.210938 12.214844 C 10.375 12.402344 9.75 13.148438 9.75 14.042969 C 9.75 14.617188 10.015625 15.125 10.425781 15.46875 C 10.175781 19.066406 12.386719 22.503906 15.976562 23.640625 L 16.316406 23.75 L 12.613281 23.75 C 15.070312 28.21875 16.253906 33.320312 16.78125 38.75 L 32.195312 38.75 C 30.109375 36.039062 28.292969 32.980469 28.25 29.164062 C 28.230469 27.507812 28.570312 25.714844 29.03125 23.75 Z M 29.03125 23.75 "/>
<path style=" stroke:none;fill-rule:nonzero;fill:rgb(32.549021%,32.549021%,32.549021%);fill-opacity:1;" d="M 32.703125 39 L 16.554688 39 L 16.53125 38.773438 C 15.945312 32.738281 14.59375 27.863281 12.394531 23.871094 L 12.191406 23.5 L 14.921875 23.5 C 11.886719 22.097656 9.980469 18.984375 10.167969 15.574219 C 9.742188 15.171875 9.5 14.621094 9.5 14.042969 C 9.5 13.09375 10.117188 12.277344 11.015625 12.007812 L 12.367188 7.753906 C 13.460938 4.3125 16.617188 2 20.226562 2 C 21.074219 2 21.914062 2.132812 22.726562 2.390625 L 26.746094 3.664062 C 31.082031 5.042969 33.488281 9.691406 32.109375 14.027344 L 29.101562 23.5 L 29.34375 23.5 L 29.273438 23.808594 C 28.859375 25.566406 28.480469 27.429688 28.5 29.164062 C 28.542969 33.082031 30.492188 36.132812 32.394531 38.597656 Z M 17.007812 38.5 L 31.691406 38.5 C 29.84375 36.039062 28.042969 33.023438 28 29.167969 C 27.980469 27.484375 28.324219 25.699219 28.714844 24 L 28.417969 24 L 31.632812 13.875 C 32.929688 9.800781 30.667969 5.433594 26.59375 4.140625 L 22.574219 2.867188 C 21.8125 2.621094 21.019531 2.5 20.226562 2.5 C 16.835938 2.5 13.871094 4.671875 12.84375 7.90625 L 11.40625 12.429688 L 11.265625 12.460938 C 10.519531 12.628906 10 13.277344 10 14.042969 C 10 14.515625 10.214844 14.96875 10.585938 15.28125 L 10.683594 15.363281 L 10.671875 15.488281 C 10.425781 19.066406 12.636719 22.320312 16.050781 23.402344 L 17.929688 24 L 13.03125 24 C 15.117188 27.933594 16.421875 32.683594 17.007812 38.5 Z M 17.007812 38.5 "/>
<path style=" stroke:none;fill-rule:nonzero;fill:rgb(90.588236%,75.294119%,68.235296%);fill-opacity:1;" d="M 19.5 24.75 C 19.269531 24.75 19.042969 24.765625 18.820312 24.789062 C 17.65625 23.390625 15.90625 22.5 13.945312 22.5 C 10.574219 22.5 7.824219 25.140625 7.632812 28.464844 C 7.140625 28.503906 6.75 28.914062 6.75 29.417969 C 6.75 29.945312 7.179688 30.375 7.707031 30.375 C 7.753906 30.375 7.796875 30.367188 7.839844 30.363281 C 7.859375 30.425781 7.871094 30.484375 7.894531 30.550781 C 8.953125 31.050781 10.085938 31.453125 11.261719 31.742188 C 11.324219 33.136719 12.464844 34.25 13.875 34.25 C 13.96875 34.25 14.058594 34.230469 14.152344 34.222656 C 15.246094 36.035156 17.226562 37.25 19.5 37.25 C 22.953125 37.25 25.75 34.453125 25.75 31 C 25.75 27.546875 22.953125 24.75 19.5 24.75 Z M 19.5 24.75 "/>
<path style=" stroke:none;fill-rule:nonzero;fill:rgb(24.313726%,24.313726%,24.313726%);fill-opacity:1;" d="M 32.105469 21.609375 L 31.625 21.464844 C 31.632812 21.441406 32.253906 19.359375 32.429688 18 C 32.34375 18.136719 32.257812 18.285156 32.175781 18.417969 C 31.277344 19.925781 30.527344 21.066406 29.804688 20.878906 C 29.070312 20.695312 29.054688 19.25 29.035156 17.847656 C 29.027344 17.46875 29.023438 16.992188 28.988281 16.699219 C 28.539062 17.460938 28.015625 19.605469 27.84375 20.40625 L 27.355469 20.300781 C 27.382812 20.171875 28.027344 17.171875 28.648438 16.308594 C 28.710938 16.222656 28.902344 15.957031 29.164062 16.042969 C 29.496094 16.148438 29.515625 16.640625 29.535156 17.84375 C 29.542969 18.640625 29.566406 20.304688 29.925781 20.394531 C 30.351562 20.507812 31.328125 18.863281 31.746094 18.164062 C 32.296875 17.246094 32.453125 16.96875 32.746094 17.050781 C 32.902344 17.09375 32.976562 17.230469 32.972656 17.457031 C 32.953125 18.761719 32.140625 21.492188 32.105469 21.609375 Z M 32.105469 21.609375 "/>
<path style=" stroke:none;fill-rule:nonzero;fill:rgb(24.313726%,24.313726%,24.313726%);fill-opacity:1;" d="M 22 31.929688 C 21.941406 30.628906 21.539062 29.648438 20.738281 28.84375 L 21.09375 28.488281 C 21.988281 29.390625 22.433594 30.476562 22.5 31.90625 Z M 22 31.929688 "/>
<path style=" stroke:none;fill-rule:nonzero;fill:rgb(24.313726%,24.313726%,24.313726%);fill-opacity:1;" d="M 15.765625 32.5 C 12.9375 32.5 10.101562 31.859375 7.179688 30.5 L 7.390625 30.046875 C 12.46875 32.410156 17.230469 32.632812 22.320312 30.800781 C 22.320312 30.800781 22.410156 31.300781 22.367188 31.316406 C 20.121094 32.109375 17.9375 32.5 15.765625 32.5 Z M 15.765625 32.5 "/>
<path style=" stroke:none;fill-rule:nonzero;fill:rgb(72.941178%,10.196079%,100%);fill-opacity:1;" d="M 16.925781 37.757812 L 17.054688 39 L 32.054688 39 L 31.398438 38.101562 L 24.070312 38.03125 Z M 16.925781 37.757812 "/>
<path style=" stroke:none;fill-rule:nonzero;fill:rgb(24.313726%,24.313726%,24.313726%);fill-opacity:1;" d="M 27.300781 6.753906 L 26.828125 6.582031 C 27.414062 4.964844 26.53125 2.515625 24.515625 1.785156 C 23.425781 1.390625 22.214844 1.402344 21.191406 1.820312 L 21.003906 1.359375 C 22.136719 0.894531 23.480469 0.878906 24.6875 1.316406 C 26.96875 2.140625 27.964844 4.914062 27.300781 6.753906 Z M 27.300781 6.753906 "/>
<path style=" stroke:none;fill-rule:nonzero;fill:rgb(32.549021%,32.549021%,32.549021%);fill-opacity:1;" d="M 28.75 27.5 C 28.664062 27.5 28.574219 27.496094 28.484375 27.484375 C 28.378906 27.472656 28.28125 27.453125 28.183594 27.429688 L 28.308594 26.945312 C 28.386719 26.964844 28.464844 26.976562 28.542969 26.988281 C 29.496094 27.101562 30.371094 26.414062 30.488281 25.457031 C 30.601562 24.5 29.914062 23.628906 28.957031 23.511719 C 28.421875 23.449219 27.898438 23.628906 27.515625 24.007812 L 27.164062 23.652344 C 27.65625 23.167969 28.328125 22.933594 29.015625 23.015625 C 30.25 23.164062 31.132812 24.285156 30.984375 25.515625 C 30.847656 26.660156 29.875 27.5 28.75 27.5 Z M 28.75 27.5 "/>
<path style=" stroke:none;fill-rule:nonzero;fill:rgb(72.941178%,10.196079%,100%);fill-opacity:1;" d="M 30.507812 25.265625 C 30.507812 26.242188 29.714844 27.035156 28.738281 27.035156 C 27.761719 27.035156 26.96875 26.242188 26.96875 25.265625 C 26.96875 24.285156 27.761719 23.496094 28.738281 23.496094 C 29.714844 23.496094 30.507812 24.285156 30.507812 25.265625 Z M 30.507812 25.265625 "/>
<path style=" stroke:none;fill-rule:nonzero;fill:rgb(24.313726%,24.313726%,24.313726%);fill-opacity:1;" d="M 19.5 24.5 C 19.316406 24.5 19.121094 24.507812 18.925781 24.527344 C 17.671875 23.078125 15.863281 22.25 13.945312 22.25 C 10.53125 22.25 7.691406 24.871094 7.398438 28.253906 C 6.878906 28.394531 6.5 28.867188 6.5 29.417969 C 6.5 30.066406 7.011719 30.59375 7.65625 30.625 L 7.6875 30.726562 C 7.6875 30.726562 9.980469 31.320312 11.015625 31.601562 C 11.101562 31.625 11.023438 31.796875 11.027344 31.941406 C 11.183594 33.390625 12.402344 34.5 13.875 34.5 C 13.925781 34.5 13.976562 34.496094 14.023438 34.488281 C 15.226562 36.378906 17.261719 37.5 19.5 37.5 C 23.085938 37.5 26 34.585938 26 31 C 26 27.414062 23.085938 24.5 19.5 24.5 Z M 19.5 37 C 17.382812 37 15.464844 35.914062 14.367188 34.09375 L 14.285156 33.957031 L 14.03125 33.984375 C 13.980469 33.992188 13.929688 34 13.875 34 C 12.605469 34 11.570312 33.003906 11.511719 31.730469 L 11.503906 31.542969 L 11.320312 31.5 C 10.199219 31.222656 9.117188 30.84375 8.101562 30.371094 L 8.101562 30.367188 C 7.886719 30.277344 7.648438 30.171875 7.390625 30.046875 C 7.164062 29.929688 7 29.691406 7 29.417969 C 7 29.046875 7.28125 28.746094 7.652344 28.714844 L 7.871094 28.699219 L 7.882812 28.480469 C 8.066406 25.265625 10.730469 22.75 13.945312 22.75 C 15.761719 22.75 17.414062 23.496094 18.574219 24.894531 L 18.660156 24.996094 L 18.792969 25 C 19.0625 25 19.289062 25 19.5 25 C 22.808594 25 25.5 27.691406 25.5 31 C 25.5 34.308594 22.808594 37 19.5 37 Z M 19.5 37 "/>
<path style=" stroke:none;fill-rule:nonzero;fill:rgb(100%,100%,100%);fill-opacity:1;" d="M 16.75 18.5 C 16.75 20.847656 14.847656 22.75 12.5 22.75 C 10.152344 22.75 8.25 20.847656 8.25 18.5 C 8.25 16.152344 10.152344 14.25 12.5 14.25 C 14.847656 14.25 16.75 16.152344 16.75 18.5 Z M 16.75 18.5 "/>
<path style=" stroke:none;fill-rule:nonzero;fill:rgb(23.529412%,23.529412%,23.529412%);fill-opacity:1;" d="M 12.5 23 C 10.019531 23 8 20.980469 8 18.5 C 8 16.019531 10.019531 14 12.5 14 C 14.980469 14 17 16.019531 17 18.5 C 17 20.980469 14.980469 23 12.5 23 Z M 12.5 14.5 C 10.292969 14.5 8.5 16.292969 8.5 18.5 C 8.5 20.707031 10.292969 22.5 12.5 22.5 C 14.707031 22.5 16.5 20.707031 16.5 18.5 C 16.5 16.292969 14.707031 14.5 12.5 14.5 Z M 12.5 14.5 "/>
<path style=" stroke:none;fill-rule:nonzero;fill:rgb(64.705884%,0%,74.509805%);fill-opacity:1;" d="M 13.25 18.5 C 13.25 18.914062 12.914062 19.25 12.5 19.25 C 12.085938 19.25 11.75 18.914062 11.75 18.5 C 11.75 18.085938 12.085938 17.75 12.5 17.75 C 12.914062 17.75 13.25 18.085938 13.25 18.5 Z M 13.25 18.5 "/>
<path style=" stroke:none;fill-rule:nonzero;fill:rgb(72.941178%,10.196079%,100%);fill-opacity:1;" d="M 19.121094 24.75 L 11.667969 24.75 C 10.613281 24.75 9.75 23.886719 9.75 22.832031 L 9.75 22.667969 C 9.75 21.613281 10.613281 20.75 11.667969 20.75 L 19.121094 20.75 Z M 19.121094 24.75 "/>
<path style=" stroke:none;fill-rule:nonzero;fill:rgb(32.549021%,32.549021%,32.549021%);fill-opacity:1;" d="M 18.871094 24.5 L 11.667969 24.5 C 10.75 24.5 10 23.75 10 22.832031 L 10 22.667969 C 10 21.75 10.75 21 11.667969 21 L 18.871094 21 L 18.871094 22.964844 L 19.371094 22.964844 L 19.371094 20.5 L 11.667969 20.5 C 10.472656 20.5 9.5 21.472656 9.5 22.667969 L 9.5 22.832031 C 9.5 24.027344 10.472656 25 11.667969 25 L 19.371094 25 L 19.371094 24.5 Z M 18.871094 24.5 "/>
<path style=" stroke:none;fill-rule:nonzero;fill:rgb(100%,100%,100%);fill-opacity:1;" d="M 25.75 18.75 C 25.75 21.511719 23.511719 23.75 20.75 23.75 C 17.988281 23.75 15.75 21.511719 15.75 18.75 C 15.75 15.988281 17.988281 13.75 20.75 13.75 C 23.511719 13.75 25.75 15.988281 25.75 18.75 Z M 25.75 18.75 "/>
<path style=" stroke:none;fill-rule:nonzero;fill:rgb(23.529412%,23.529412%,23.529412%);fill-opacity:1;" d="M 20.75 24 C 17.855469 24 15.5 21.644531 15.5 18.75 C 15.5 15.855469 17.855469 13.5 20.75 13.5 C 23.644531 13.5 26 15.855469 26 18.75 C 26 21.644531 23.644531 24 20.75 24 Z M 20.75 14 C 18.132812 14 16 16.132812 16 18.75 C 16 21.367188 18.132812 23.5 20.75 23.5 C 23.367188 23.5 25.5 21.367188 25.5 18.75 C 25.5 16.132812 23.367188 14 20.75 14 Z M 20.75 14 "/>
<path style=" stroke:none;fill-rule:nonzero;fill:rgb(64.705884%,0%,74.509805%);fill-opacity:1;" d="M 22.75 18.5 C 22.75 18.914062 22.414062 19.25 22 19.25 C 21.585938 19.25 21.25 18.914062 21.25 18.5 C 21.25 18.085938 21.585938 17.75 22 17.75 C 22.414062 17.75 22.75 18.085938 22.75 18.5 Z M 22.75 18.5 "/>
</g>
</svg>
