<?xml version="1.0" encoding="UTF-8"?>
<svg xmlns="http://www.w3.org/2000/svg" xmlns:xlink="http://www.w3.org/1999/xlink" viewBox="0 0 16 16" width="16px" height="16px">
<g id="surface7340476">
<path style=" stroke:none;fill-rule:nonzero;fill:rgb(24.313726%,24.313726%,24.313726%);fill-opacity:1;" d="M 10.917969 2.703125 L 10.730469 2.632812 C 10.964844 1.984375 10.613281 1.003906 9.808594 0.714844 C 8.992188 0.417969 8.046875 0.71875 7.824219 1.34375 L 7.632812 1.277344 C 7.894531 0.554688 8.964844 0.195312 9.875 0.527344 C 10.785156 0.855469 11.183594 1.964844 10.917969 2.703125 Z M 10.917969 2.703125 "/>
<path style=" stroke:none;fill-rule:nonzero;fill:rgb(72.941178%,10.196079%,100%);fill-opacity:1;" d="M 11.613281 9.5 L 11.503906 9.5 L 12.75 5.578125 C 13.285156 3.894531 12.351562 2.097656 10.667969 1.5625 L 9.0625 1.050781 C 7.375 0.515625 5.578125 1.449219 5.042969 3.132812 L 4.484375 4.886719 C 4.152344 4.960938 3.898438 5.257812 3.898438 5.617188 C 3.898438 5.847656 4.007812 6.050781 4.167969 6.1875 C 4.070312 7.625 4.957031 9 6.390625 9.457031 L 6.527344 9.5 L 5.046875 9.5 C 6.027344 11.285156 6.5 13.328125 6.710938 15.5 L 12.878906 15.5 C 12.042969 14.417969 11.316406 13.191406 11.300781 11.667969 C 11.292969 11.003906 11.425781 10.285156 11.613281 9.5 Z M 11.613281 9.5 "/>
<path style=" stroke:none;fill-rule:nonzero;fill:rgb(32.549021%,32.549021%,32.549021%);fill-opacity:1;" d="M 13.082031 15.601562 L 6.621094 15.601562 L 6.613281 15.507812 C 6.378906 13.097656 5.835938 11.144531 4.957031 9.546875 L 4.875 9.398438 L 5.96875 9.398438 C 4.753906 8.839844 3.992188 7.59375 4.066406 6.230469 C 3.898438 6.070312 3.800781 5.847656 3.800781 5.617188 C 3.800781 5.238281 4.046875 4.910156 4.40625 4.804688 L 4.945312 3.101562 C 5.382812 1.726562 6.648438 0.800781 8.089844 0.800781 C 8.429688 0.800781 8.765625 0.851562 9.089844 0.957031 L 10.699219 1.464844 C 12.433594 2.015625 13.394531 3.875 12.84375 5.609375 L 11.640625 9.398438 L 11.738281 9.398438 L 11.710938 9.523438 C 11.542969 10.226562 11.390625 10.972656 11.398438 11.664062 C 11.417969 13.234375 12.199219 14.453125 12.957031 15.4375 Z M 6.804688 15.398438 L 12.675781 15.398438 C 11.9375 14.414062 11.21875 13.207031 11.199219 11.667969 C 11.191406 10.992188 11.328125 10.277344 11.484375 9.601562 L 11.367188 9.601562 L 12.652344 5.550781 C 13.171875 3.921875 12.265625 2.175781 10.636719 1.65625 L 9.03125 1.144531 C 8.722656 1.050781 8.410156 1 8.089844 1 C 6.734375 1 5.546875 1.867188 5.136719 3.164062 L 4.5625 4.972656 L 4.507812 4.984375 C 4.207031 5.050781 4 5.3125 4 5.617188 C 4 5.804688 4.085938 5.988281 4.234375 6.113281 L 4.273438 6.144531 L 4.269531 6.195312 C 4.171875 7.625 5.054688 8.929688 6.421875 9.363281 L 7.171875 9.601562 L 5.214844 9.601562 C 6.046875 11.171875 6.570312 13.074219 6.804688 15.398438 Z M 6.804688 15.398438 "/>
<path style=" stroke:none;fill-rule:nonzero;fill:rgb(90.588236%,75.294119%,68.235296%);fill-opacity:1;" d="M 7.800781 9.898438 C 7.707031 9.898438 7.617188 9.90625 7.527344 9.914062 C 7.0625 9.355469 6.363281 9 5.578125 9 C 4.230469 9 3.128906 10.054688 3.054688 11.386719 C 2.855469 11.402344 2.699219 11.566406 2.699219 11.765625 C 2.699219 11.976562 2.871094 12.148438 3.082031 12.148438 C 3.101562 12.148438 3.117188 12.148438 3.136719 12.144531 C 3.144531 12.167969 3.148438 12.195312 3.15625 12.21875 C 3.582031 12.421875 4.035156 12.582031 4.503906 12.695312 C 4.53125 13.253906 4.984375 13.699219 5.550781 13.699219 C 5.589844 13.699219 5.625 13.691406 5.660156 13.6875 C 6.097656 14.414062 6.890625 14.898438 7.800781 14.898438 C 9.179688 14.898438 10.300781 13.78125 10.300781 12.398438 C 10.300781 11.019531 9.179688 9.898438 7.800781 9.898438 Z M 7.800781 9.898438 "/>
<path style=" stroke:none;fill-rule:nonzero;fill:rgb(24.313726%,24.313726%,24.313726%);fill-opacity:1;" d="M 12.84375 8.644531 L 12.652344 8.585938 C 12.652344 8.578125 12.902344 7.742188 12.972656 7.199219 C 12.9375 7.253906 12.902344 7.3125 12.871094 7.367188 C 12.511719 7.96875 12.210938 8.425781 11.921875 8.351562 C 11.628906 8.277344 11.621094 7.699219 11.613281 7.140625 C 11.613281 6.988281 11.609375 6.796875 11.597656 6.679688 C 11.414062 6.984375 11.207031 7.84375 11.136719 8.160156 L 10.941406 8.121094 C 10.953125 8.070312 11.210938 6.867188 11.460938 6.523438 C 11.484375 6.488281 11.5625 6.382812 11.664062 6.417969 C 11.800781 6.457031 11.808594 6.65625 11.8125 7.136719 C 11.816406 7.457031 11.828125 8.121094 11.96875 8.160156 C 12.140625 8.203125 12.53125 7.546875 12.699219 7.265625 C 12.917969 6.898438 12.980469 6.789062 13.097656 6.820312 C 13.160156 6.835938 13.191406 6.890625 13.1875 6.984375 C 13.179688 7.503906 12.855469 8.597656 12.84375 8.644531 Z M 12.84375 8.644531 "/>
<path style=" stroke:none;fill-rule:nonzero;fill:rgb(24.313726%,24.313726%,24.313726%);fill-opacity:1;" d="M 8.800781 12.769531 C 8.777344 12.25 8.617188 11.859375 8.296875 11.535156 L 8.4375 11.394531 C 8.792969 11.757812 8.972656 12.191406 9 12.761719 Z M 8.800781 12.769531 "/>
<path style=" stroke:none;fill-rule:nonzero;fill:rgb(24.313726%,24.313726%,24.313726%);fill-opacity:1;" d="M 6.304688 13 C 5.175781 13 4.039062 12.746094 2.871094 12.199219 L 2.957031 12.019531 C 4.988281 12.964844 6.890625 13.050781 8.929688 12.320312 C 8.929688 12.320312 8.964844 12.519531 8.945312 12.527344 C 8.046875 12.84375 7.175781 13 6.304688 13 Z M 6.304688 13 "/>
<path style=" stroke:none;fill-rule:nonzero;fill:rgb(72.941178%,10.196079%,100%);fill-opacity:1;" d="M 6.769531 15.101562 L 6.820312 15.601562 L 12.820312 15.601562 L 12.558594 15.242188 L 9.628906 15.210938 Z M 6.769531 15.101562 "/>
<path style=" stroke:none;fill-rule:nonzero;fill:rgb(24.313726%,24.313726%,24.313726%);fill-opacity:1;" d="M 10.917969 2.703125 L 10.730469 2.632812 C 10.964844 1.984375 10.613281 1.003906 9.808594 0.714844 C 9.371094 0.554688 8.886719 0.5625 8.476562 0.726562 L 8.402344 0.542969 C 8.855469 0.359375 9.394531 0.351562 9.875 0.527344 C 10.785156 0.855469 11.183594 1.964844 10.917969 2.703125 Z M 10.917969 2.703125 "/>
<path style=" stroke:none;fill-rule:nonzero;fill:rgb(32.549021%,32.549021%,32.549021%);fill-opacity:1;" d="M 11.5 11 C 11.464844 11 11.429688 10.996094 11.394531 10.992188 C 11.351562 10.988281 11.3125 10.980469 11.273438 10.972656 L 11.324219 10.777344 C 11.355469 10.785156 11.386719 10.792969 11.417969 10.796875 C 11.796875 10.839844 12.148438 10.566406 12.195312 10.183594 C 12.242188 9.800781 11.964844 9.449219 11.582031 9.40625 C 11.371094 9.378906 11.160156 9.453125 11.007812 9.601562 L 10.867188 9.460938 C 11.0625 9.265625 11.332031 9.175781 11.605469 9.207031 C 12.097656 9.265625 12.453125 9.714844 12.394531 10.207031 C 12.339844 10.664062 11.949219 11 11.5 11 Z M 11.5 11 "/>
<path style=" stroke:none;fill-rule:nonzero;fill:rgb(72.941178%,10.196079%,100%);fill-opacity:1;" d="M 12.203125 10.105469 C 12.203125 10.496094 11.886719 10.8125 11.496094 10.8125 C 11.105469 10.8125 10.789062 10.496094 10.789062 10.105469 C 10.789062 9.714844 11.105469 9.398438 11.496094 9.398438 C 11.886719 9.398438 12.203125 9.714844 12.203125 10.105469 Z M 12.203125 10.105469 "/>
<path style=" stroke:none;fill-rule:nonzero;fill:rgb(24.313726%,24.313726%,24.313726%);fill-opacity:1;" d="M 7.800781 9.800781 C 7.726562 9.800781 7.648438 9.804688 7.570312 9.8125 C 7.070312 9.230469 6.347656 8.898438 5.578125 8.898438 C 4.210938 8.898438 3.078125 9.949219 2.957031 11.300781 C 2.753906 11.355469 2.601562 11.546875 2.601562 11.765625 C 2.601562 12.027344 2.804688 12.238281 3.0625 12.25 L 3.074219 12.292969 C 3.074219 12.292969 3.992188 12.527344 4.40625 12.640625 C 4.441406 12.648438 4.410156 12.71875 4.410156 12.777344 C 4.472656 13.355469 4.960938 13.800781 5.550781 13.800781 C 5.570312 13.800781 5.589844 13.796875 5.609375 13.796875 C 6.089844 14.550781 6.90625 15 7.800781 15 C 9.234375 15 10.398438 13.832031 10.398438 12.398438 C 10.398438 10.964844 9.234375 9.800781 7.800781 9.800781 Z M 7.800781 14.800781 C 6.953125 14.800781 6.1875 14.363281 5.746094 13.636719 L 5.714844 13.582031 L 5.613281 13.59375 C 5.59375 13.597656 5.570312 13.601562 5.550781 13.601562 C 5.042969 13.601562 4.628906 13.203125 4.605469 12.691406 L 4.601562 12.617188 L 4.527344 12.597656 C 4.082031 12.488281 3.648438 12.335938 3.242188 12.148438 L 3.238281 12.144531 C 3.15625 12.109375 3.058594 12.070312 2.957031 12.019531 C 2.867188 11.972656 2.800781 11.875 2.800781 11.765625 C 2.800781 11.617188 2.914062 11.496094 3.0625 11.484375 L 3.148438 11.480469 L 3.152344 11.390625 C 3.226562 10.105469 4.292969 9.101562 5.578125 9.101562 C 6.304688 9.101562 6.964844 9.398438 7.429688 9.957031 L 7.464844 10 L 7.515625 10 C 7.625 10 7.714844 10 7.800781 10 C 9.125 10 10.199219 11.078125 10.199219 12.398438 C 10.199219 13.722656 9.125 14.800781 7.800781 14.800781 Z M 7.800781 14.800781 "/>
<path style=" stroke:none;fill-rule:nonzero;fill:rgb(100%,100%,100%);fill-opacity:1;" d="M 6.699219 7.398438 C 6.699219 8.339844 5.9375 9.101562 5 9.101562 C 4.0625 9.101562 3.300781 8.339844 3.300781 7.398438 C 3.300781 6.460938 4.0625 5.699219 5 5.699219 C 5.9375 5.699219 6.699219 6.460938 6.699219 7.398438 Z M 6.699219 7.398438 "/>
<path style=" stroke:none;fill-rule:nonzero;fill:rgb(23.529412%,23.529412%,23.529412%);fill-opacity:1;" d="M 5 9.199219 C 4.007812 9.199219 3.199219 8.394531 3.199219 7.398438 C 3.199219 6.40625 4.007812 5.601562 5 5.601562 C 5.992188 5.601562 6.800781 6.40625 6.800781 7.398438 C 6.800781 8.394531 5.992188 9.199219 5 9.199219 Z M 5 5.800781 C 4.117188 5.800781 3.398438 6.519531 3.398438 7.398438 C 3.398438 8.28125 4.117188 9 5 9 C 5.882812 9 6.601562 8.28125 6.601562 7.398438 C 6.601562 6.519531 5.882812 5.800781 5 5.800781 Z M 5 5.800781 "/>
<path style=" stroke:none;fill-rule:nonzero;fill:rgb(64.705884%,0%,74.509805%);fill-opacity:1;" d="M 5.300781 7.398438 C 5.300781 7.566406 5.164062 7.699219 5 7.699219 C 4.835938 7.699219 4.699219 7.566406 4.699219 7.398438 C 4.699219 7.234375 4.835938 7.101562 5 7.101562 C 5.164062 7.101562 5.300781 7.234375 5.300781 7.398438 Z M 5.300781 7.398438 "/>
<path style=" stroke:none;fill-rule:nonzero;fill:rgb(72.941178%,10.196079%,100%);fill-opacity:1;" d="M 7.648438 9.898438 L 4.667969 9.898438 C 4.246094 9.898438 3.898438 9.554688 3.898438 9.132812 L 3.898438 9.066406 C 3.898438 8.644531 4.246094 8.300781 4.667969 8.300781 L 7.648438 8.300781 Z M 7.648438 9.898438 "/>
<path style=" stroke:none;fill-rule:nonzero;fill:rgb(32.549021%,32.549021%,32.549021%);fill-opacity:1;" d="M 7.546875 9.800781 L 4.667969 9.800781 C 4.300781 9.800781 4 9.5 4 9.132812 L 4 9.066406 C 4 8.699219 4.300781 8.398438 4.667969 8.398438 L 7.546875 8.398438 L 7.546875 9.1875 L 7.75 9.1875 L 7.75 8.199219 L 4.667969 8.199219 C 4.1875 8.199219 3.800781 8.589844 3.800781 9.066406 L 3.800781 9.132812 C 3.800781 9.609375 4.1875 10 4.667969 10 L 7.75 10 L 7.75 9.800781 Z M 7.546875 9.800781 "/>
<path style=" stroke:none;fill-rule:nonzero;fill:rgb(100%,100%,100%);fill-opacity:1;" d="M 10.300781 7.5 C 10.300781 8.605469 9.40625 9.5 8.300781 9.5 C 7.195312 9.5 6.300781 8.605469 6.300781 7.5 C 6.300781 6.394531 7.195312 5.5 8.300781 5.5 C 9.40625 5.5 10.300781 6.394531 10.300781 7.5 Z M 10.300781 7.5 "/>
<path style=" stroke:none;fill-rule:nonzero;fill:rgb(23.529412%,23.529412%,23.529412%);fill-opacity:1;" d="M 8.300781 9.601562 C 7.140625 9.601562 6.199219 8.65625 6.199219 7.5 C 6.199219 6.34375 7.140625 5.398438 8.300781 5.398438 C 9.457031 5.398438 10.398438 6.34375 10.398438 7.5 C 10.398438 8.65625 9.457031 9.601562 8.300781 9.601562 Z M 8.300781 5.601562 C 7.253906 5.601562 6.398438 6.453125 6.398438 7.5 C 6.398438 8.546875 7.253906 9.398438 8.300781 9.398438 C 9.347656 9.398438 10.199219 8.546875 10.199219 7.5 C 10.199219 6.453125 9.347656 5.601562 8.300781 5.601562 Z M 8.300781 5.601562 "/>
<path style=" stroke:none;fill-rule:nonzero;fill:rgb(64.705884%,0%,74.509805%);fill-opacity:1;" d="M 9.101562 7.398438 C 9.101562 7.566406 8.964844 7.699219 8.800781 7.699219 C 8.632812 7.699219 8.5 7.566406 8.5 7.398438 C 8.5 7.234375 8.632812 7.101562 8.800781 7.101562 C 8.964844 7.101562 9.101562 7.234375 9.101562 7.398438 Z M 9.101562 7.398438 "/>
</g>
</svg>
