<?xml version="1.0" encoding="UTF-8"?>
<svg xmlns="http://www.w3.org/2000/svg" xmlns:xlink="http://www.w3.org/1999/xlink" viewBox="0 0 80 80" width="80px" height="80px">
<g id="surface7340492">
<path style=" stroke:none;fill-rule:nonzero;fill:rgb(24.313726%,24.313726%,24.313726%);fill-opacity:1;" d="M 54.597656 13.507812 L 53.660156 13.164062 C 54.828125 9.925781 53.0625 5.027344 49.035156 3.570312 C 44.96875 2.097656 40.242188 3.601562 39.113281 6.71875 L 38.171875 6.378906 C 39.480469 2.769531 44.820312 0.980469 49.375 2.628906 C 53.933594 4.28125 55.925781 9.832031 54.597656 13.507812 Z M 54.597656 13.507812 "/>
<path style=" stroke:none;fill-rule:nonzero;fill:rgb(72.941178%,10.196079%,100%);fill-opacity:1;" d="M 58.0625 47.5 L 57.519531 47.5 L 63.746094 27.898438 C 66.421875 19.476562 61.761719 10.480469 53.339844 7.808594 L 45.304688 5.253906 C 36.878906 2.578125 27.882812 7.238281 25.210938 15.660156 L 22.425781 24.429688 C 20.753906 24.808594 19.5 26.296875 19.5 28.082031 C 19.5 29.234375 20.03125 30.253906 20.847656 30.941406 C 20.351562 38.132812 24.777344 45.003906 31.953125 47.28125 L 32.636719 47.5 L 25.226562 47.5 C 30.144531 56.433594 32.507812 66.640625 33.5625 77.5 L 64.394531 77.5 C 60.214844 72.082031 56.585938 65.960938 56.5 58.332031 C 56.464844 55.015625 57.136719 51.429688 58.0625 47.5 Z M 58.0625 47.5 "/>
<path style=" stroke:none;fill-rule:nonzero;fill:rgb(32.549021%,32.549021%,32.549021%);fill-opacity:1;" d="M 65.410156 78 L 33.105469 78 L 33.0625 77.546875 C 31.890625 65.480469 29.183594 55.730469 24.789062 47.742188 L 24.382812 47 L 29.84375 47 C 23.777344 44.191406 19.964844 37.964844 20.335938 31.152344 C 19.484375 30.347656 19 29.242188 19 28.082031 C 19 26.183594 20.230469 24.550781 22.03125 24.019531 L 24.730469 15.511719 C 26.917969 8.625 33.238281 4 40.453125 4 C 42.144531 4 43.828125 4.261719 45.453125 4.777344 L 53.488281 7.332031 C 62.160156 10.085938 66.976562 19.378906 64.222656 28.050781 L 58.203125 47 L 58.691406 47 L 58.546875 47.613281 C 57.722656 51.128906 56.960938 54.859375 57 58.328125 C 57.089844 66.164062 60.988281 72.261719 64.789062 77.195312 Z M 34.015625 77 L 63.382812 77 C 59.6875 72.078125 56.085938 66.042969 56 58.339844 C 55.960938 54.96875 56.648438 51.394531 57.429688 48 L 56.835938 48 L 63.269531 27.75 C 65.855469 19.601562 61.332031 10.871094 53.1875 8.285156 L 45.148438 5.730469 C 43.621094 5.246094 42.042969 5 40.453125 5 C 33.675781 5 27.738281 9.34375 25.683594 15.8125 L 22.8125 24.855469 L 22.535156 24.921875 C 21.042969 25.257812 20 26.558594 20 28.082031 C 20 29.03125 20.425781 29.933594 21.171875 30.558594 L 21.363281 30.722656 L 21.347656 30.976562 C 20.851562 38.128906 25.277344 44.640625 32.105469 46.808594 L 35.855469 48 L 26.066406 48 C 30.238281 55.867188 32.84375 65.367188 34.015625 77 Z M 34.015625 77 "/>
<path style=" stroke:none;fill-rule:nonzero;fill:rgb(90.588236%,75.294119%,68.235296%);fill-opacity:1;" d="M 39 49.5 C 38.539062 49.5 38.085938 49.527344 37.640625 49.578125 C 35.316406 46.78125 31.8125 45 27.894531 45 C 21.144531 45 15.648438 50.28125 15.265625 56.933594 C 14.277344 57.011719 13.5 57.828125 13.5 58.832031 C 13.5 59.890625 14.359375 60.75 15.417969 60.75 C 15.507812 60.75 15.59375 60.734375 15.679688 60.722656 C 15.714844 60.847656 15.746094 60.96875 15.785156 61.097656 C 17.90625 62.101562 20.167969 62.902344 22.523438 63.484375 C 22.648438 66.273438 24.929688 68.5 27.75 68.5 C 27.941406 68.5 28.121094 68.464844 28.304688 68.445312 C 30.492188 72.070312 34.457031 74.5 39 74.5 C 45.902344 74.5 51.5 68.902344 51.5 62 C 51.5 55.097656 45.902344 49.5 39 49.5 Z M 39 49.5 "/>
<path style=" stroke:none;fill-rule:nonzero;fill:rgb(24.313726%,24.313726%,24.313726%);fill-opacity:1;" d="M 64.210938 43.21875 L 63.253906 42.929688 C 63.269531 42.882812 64.507812 38.714844 64.855469 36.003906 C 64.691406 36.273438 64.515625 36.566406 64.355469 36.835938 C 62.550781 39.851562 61.054688 42.132812 59.609375 41.761719 C 58.144531 41.394531 58.105469 38.496094 58.066406 35.699219 C 58.058594 34.941406 58.046875 33.980469 57.980469 33.402344 C 57.078125 34.917969 56.03125 39.210938 55.6875 40.808594 L 54.710938 40.601562 C 54.765625 40.347656 56.054688 34.34375 57.296875 32.617188 C 57.421875 32.445312 57.804688 31.914062 58.324219 32.082031 C 58.996094 32.292969 59.035156 33.277344 59.066406 35.6875 C 59.089844 37.285156 59.132812 40.613281 59.851562 40.792969 C 60.703125 41.019531 62.65625 37.726562 63.496094 36.324219 C 64.589844 34.492188 64.910156 33.941406 65.496094 34.101562 C 65.800781 34.1875 65.953125 34.460938 65.945312 34.914062 C 65.90625 37.527344 64.28125 42.984375 64.210938 43.21875 Z M 64.210938 43.21875 "/>
<path style=" stroke:none;fill-rule:nonzero;fill:rgb(24.313726%,24.313726%,24.313726%);fill-opacity:1;" d="M 44 63.855469 C 43.882812 61.257812 43.078125 59.296875 41.476562 57.683594 L 42.1875 56.980469 C 43.972656 58.78125 44.867188 60.949219 45 63.808594 Z M 44 63.855469 "/>
<path style=" stroke:none;fill-rule:nonzero;fill:rgb(24.313726%,24.313726%,24.313726%);fill-opacity:1;" d="M 31.53125 65 C 25.871094 65 20.203125 63.722656 14.359375 61 L 14.78125 60.09375 C 24.941406 64.824219 34.460938 65.261719 44.640625 61.601562 C 44.640625 61.601562 44.816406 62.601562 44.734375 62.628906 C 40.238281 64.21875 35.875 65 31.53125 65 Z M 31.53125 65 "/>
<path style=" stroke:none;fill-rule:nonzero;fill:rgb(72.941178%,10.196079%,100%);fill-opacity:1;" d="M 33.851562 75.515625 L 34.109375 78 L 64.109375 78 L 62.796875 76.203125 L 48.140625 76.0625 Z M 33.851562 75.515625 "/>
<path style=" stroke:none;fill-rule:nonzero;fill:rgb(24.313726%,24.313726%,24.313726%);fill-opacity:1;" d="M 54.597656 13.507812 L 53.660156 13.164062 C 54.828125 9.925781 53.0625 5.027344 49.035156 3.570312 C 46.851562 2.78125 44.429688 2.808594 42.382812 3.640625 L 42.003906 2.714844 C 44.273438 1.789062 46.964844 1.757812 49.375 2.628906 C 53.933594 4.28125 55.925781 9.832031 54.597656 13.507812 Z M 54.597656 13.507812 "/>
<path style=" stroke:none;fill-rule:nonzero;fill:rgb(32.549021%,32.549021%,32.549021%);fill-opacity:1;" d="M 57.503906 55 C 57.324219 55 57.148438 54.988281 56.964844 54.96875 C 56.761719 54.945312 56.5625 54.90625 56.367188 54.855469 L 56.621094 53.890625 C 56.769531 53.929688 56.929688 53.957031 57.085938 53.976562 C 58.992188 54.203125 60.746094 52.832031 60.976562 50.914062 C 61.203125 49 59.832031 47.253906 57.914062 47.023438 C 56.847656 46.894531 55.796875 47.257812 55.03125 48.015625 L 54.328125 47.304688 C 55.308594 46.332031 56.65625 45.871094 58.03125 46.03125 C 60.496094 46.328125 62.261719 48.570312 61.96875 51.035156 C 61.695312 53.316406 59.746094 55 57.503906 55 Z M 57.503906 55 "/>
<path style=" stroke:none;fill-rule:nonzero;fill:rgb(72.941178%,10.196079%,100%);fill-opacity:1;" d="M 61.019531 50.527344 C 61.019531 52.484375 59.433594 54.066406 57.480469 54.066406 C 55.523438 54.066406 53.941406 52.484375 53.941406 50.527344 C 53.941406 48.574219 55.523438 46.988281 57.480469 46.988281 C 59.433594 46.988281 61.019531 48.574219 61.019531 50.527344 Z M 61.019531 50.527344 "/>
<path style=" stroke:none;fill-rule:nonzero;fill:rgb(24.313726%,24.313726%,24.313726%);fill-opacity:1;" d="M 39 49 C 38.628906 49 38.242188 49.019531 37.851562 49.054688 C 35.34375 46.15625 31.730469 44.5 27.894531 44.5 C 21.0625 44.5 15.386719 49.742188 14.792969 56.507812 C 13.761719 56.785156 13 57.734375 13 58.835938 C 13 60.128906 14.027344 61.191406 15.308594 61.246094 L 15.371094 61.457031 C 15.371094 61.457031 19.960938 62.640625 22.03125 63.203125 C 22.203125 63.25 22.050781 63.59375 22.050781 63.882812 C 22.367188 66.78125 24.804688 69 27.75 69 C 27.851562 69 27.949219 68.992188 28.046875 68.980469 C 30.453125 72.757812 34.523438 75 39 75 C 46.167969 75 52 69.167969 52 62 C 52 54.832031 46.167969 49 39 49 Z M 39 74 C 34.769531 74 30.929688 71.824219 28.730469 68.1875 L 28.566406 67.914062 L 28.0625 67.972656 C 27.960938 67.984375 27.855469 68 27.75 68 C 25.214844 68 23.136719 66.007812 23.023438 63.460938 L 23.003906 63.085938 L 22.640625 62.996094 C 20.402344 62.445312 18.238281 61.6875 16.203125 60.742188 L 16.199219 60.730469 C 15.773438 60.554688 15.292969 60.34375 14.78125 60.09375 L 14.78125 60.089844 C 14.328125 59.855469 14 59.382812 14 58.835938 C 14 58.09375 14.5625 57.488281 15.304688 57.429688 L 15.738281 57.398438 L 15.765625 56.960938 C 16.132812 50.535156 21.460938 45.5 27.894531 45.5 C 31.519531 45.5 34.824219 46.992188 37.144531 49.789062 L 37.316406 49.996094 L 37.585938 50 C 38.125 50 38.578125 50 39 50 C 45.617188 50 51 55.382812 51 62 C 51 68.617188 45.617188 74 39 74 Z M 39 74 "/>
<path style=" stroke:none;fill-rule:nonzero;fill:rgb(100%,100%,100%);fill-opacity:1;" d="M 33.5 37 C 33.5 41.695312 29.695312 45.5 25 45.5 C 20.304688 45.5 16.5 41.695312 16.5 37 C 16.5 32.304688 20.304688 28.5 25 28.5 C 29.695312 28.5 33.5 32.304688 33.5 37 Z M 33.5 37 "/>
<path style=" stroke:none;fill-rule:nonzero;fill:rgb(23.529412%,23.529412%,23.529412%);fill-opacity:1;" d="M 25 46 C 20.035156 46 16 41.964844 16 37 C 16 32.035156 20.035156 28 25 28 C 29.964844 28 34 32.035156 34 37 C 34 41.964844 29.964844 46 25 46 Z M 25 29 C 20.589844 29 17 32.589844 17 37 C 17 41.410156 20.589844 45 25 45 C 29.410156 45 33 41.410156 33 37 C 33 32.589844 29.410156 29 25 29 Z M 25 29 "/>
<path style=" stroke:none;fill-rule:nonzero;fill:rgb(64.705884%,0%,74.509805%);fill-opacity:1;" d="M 26.5 37 C 26.5 37.828125 25.828125 38.5 25 38.5 C 24.171875 38.5 23.5 37.828125 23.5 37 C 23.5 36.171875 24.171875 35.5 25 35.5 C 25.828125 35.5 26.5 36.171875 26.5 37 Z M 26.5 37 "/>
<path style=" stroke:none;fill-rule:nonzero;fill:rgb(72.941178%,10.196079%,100%);fill-opacity:1;" d="M 38.242188 49.5 L 23.335938 49.5 C 21.226562 49.5 19.5 47.773438 19.5 45.664062 L 19.5 45.335938 C 19.5 43.226562 21.226562 41.5 23.335938 41.5 L 38.242188 41.5 Z M 38.242188 49.5 "/>
<path style=" stroke:none;fill-rule:nonzero;fill:rgb(32.549021%,32.549021%,32.549021%);fill-opacity:1;" d="M 37.742188 49 L 23.335938 49 C 21.496094 49 20 47.503906 20 45.664062 L 20 45.335938 C 20 43.496094 21.496094 42 23.335938 42 L 37.742188 42 L 37.742188 45.933594 L 38.742188 45.933594 L 38.742188 41 L 23.335938 41 C 20.945312 41 19 42.945312 19 45.335938 L 19 45.664062 C 19 48.054688 20.945312 50 23.335938 50 L 38.742188 50 L 38.742188 49 Z M 37.742188 49 "/>
<path style=" stroke:none;fill-rule:nonzero;fill:rgb(100%,100%,100%);fill-opacity:1;" d="M 51.5 37.5 C 51.5 43.023438 47.023438 47.5 41.5 47.5 C 35.976562 47.5 31.5 43.023438 31.5 37.5 C 31.5 31.976562 35.976562 27.5 41.5 27.5 C 47.023438 27.5 51.5 31.976562 51.5 37.5 Z M 51.5 37.5 "/>
<path style=" stroke:none;fill-rule:nonzero;fill:rgb(23.529412%,23.529412%,23.529412%);fill-opacity:1;" d="M 41.5 48 C 35.710938 48 31 43.289062 31 37.5 C 31 31.710938 35.710938 27 41.5 27 C 47.289062 27 52 31.710938 52 37.5 C 52 43.289062 47.289062 48 41.5 48 Z M 41.5 28 C 36.261719 28 32 32.261719 32 37.5 C 32 42.738281 36.261719 47 41.5 47 C 46.738281 47 51 42.738281 51 37.5 C 51 32.261719 46.738281 28 41.5 28 Z M 41.5 28 "/>
<path style=" stroke:none;fill-rule:nonzero;fill:rgb(64.705884%,0%,74.509805%);fill-opacity:1;" d="M 45.5 37 C 45.5 37.828125 44.828125 38.5 44 38.5 C 43.171875 38.5 42.5 37.828125 42.5 37 C 42.5 36.171875 43.171875 35.5 44 35.5 C 44.828125 35.5 45.5 36.171875 45.5 37 Z M 45.5 37 "/>
</g>
</svg>
