<?xml version="1.0" encoding="UTF-8"?>
<svg xmlns="http://www.w3.org/2000/svg" xmlns:xlink="http://www.w3.org/1999/xlink" viewBox="0 0 160 160" width="160px" height="160px">
<g id="surface7340497">
<path style=" stroke:none;fill-rule:nonzero;fill:rgb(24.313726%,24.313726%,24.313726%);fill-opacity:1;" d="M 109.195312 27.011719 L 107.316406 26.332031 C 109.660156 19.855469 106.128906 10.058594 98.066406 7.140625 C 89.9375 4.195312 80.480469 7.203125 78.222656 13.4375 L 76.347656 12.757812 C 78.960938 5.535156 89.640625 1.960938 98.746094 5.261719 C 107.867188 8.558594 111.855469 19.664062 109.195312 27.011719 Z M 109.195312 27.011719 "/>
<path style=" stroke:none;fill-rule:nonzero;fill:rgb(72.941178%,10.196079%,100%);fill-opacity:1;" d="M 116.121094 95 L 115.042969 95 L 127.492188 55.800781 C 132.84375 38.957031 123.523438 20.964844 106.679688 15.617188 L 90.605469 10.511719 C 73.761719 5.160156 55.769531 14.476562 50.417969 31.320312 L 44.847656 48.863281 C 41.503906 49.617188 39 52.59375 39 56.164062 C 39 58.46875 40.0625 60.507812 41.699219 61.882812 C 40.703125 76.269531 49.554688 90.007812 63.90625 94.566406 L 65.269531 94.996094 L 50.457031 94.996094 C 60.289062 112.867188 65.015625 133.28125 67.121094 154.996094 L 128.789062 154.996094 C 120.433594 144.160156 113.171875 131.921875 113 116.664062 C 112.925781 110.03125 114.273438 102.859375 116.121094 95 Z M 116.121094 95 "/>
<path style=" stroke:none;fill-rule:nonzero;fill:rgb(32.549021%,32.549021%,32.549021%);fill-opacity:1;" d="M 130.820312 156 L 66.210938 156 L 66.125 155.097656 C 63.78125 130.960938 58.367188 111.460938 49.578125 95.480469 L 48.765625 94 L 59.691406 94 C 47.550781 88.382812 39.929688 75.929688 40.671875 62.304688 C 38.964844 60.695312 38 58.484375 38 56.164062 C 38 52.367188 40.464844 49.105469 44.058594 48.035156 L 49.464844 31.019531 C 53.839844 17.25 66.472656 8 80.910156 8 C 84.289062 8 87.652344 8.523438 90.90625 9.554688 L 106.980469 14.660156 C 124.320312 20.171875 133.949219 38.761719 128.441406 56.105469 L 116.40625 94 L 117.382812 94 L 117.09375 95.226562 C 115.441406 102.261719 113.921875 109.71875 114 116.652344 C 114.175781 132.328125 121.972656 144.527344 129.578125 154.386719 Z M 68.027344 154 L 126.769531 154 C 119.371094 144.160156 112.175781 132.089844 112 116.679688 C 111.925781 109.9375 113.292969 102.792969 114.863281 96 L 113.675781 96 L 126.539062 55.496094 C 131.710938 39.207031 122.664062 21.742188 106.375 16.566406 L 90.300781 11.460938 C 87.242188 10.492188 84.085938 10 80.910156 10 C 67.351562 10 55.476562 18.691406 51.371094 31.625 L 45.625 49.714844 L 45.066406 49.839844 C 42.085938 50.511719 40 53.113281 40 56.164062 C 40 58.058594 40.855469 59.867188 42.34375 61.117188 L 42.730469 61.445312 L 42.695312 61.953125 C 41.707031 76.257812 50.550781 89.277344 64.207031 93.613281 L 71.710938 96 L 52.128906 96 C 60.476562 111.730469 65.683594 130.738281 68.027344 154 Z M 68.027344 154 "/>
<path style=" stroke:none;fill-rule:nonzero;fill:rgb(90.588236%,75.294119%,68.235296%);fill-opacity:1;" d="M 78 99 C 77.078125 99 76.171875 99.058594 75.277344 99.152344 C 70.628906 93.5625 63.625 90 55.789062 90 C 42.292969 90 31.292969 100.558594 30.527344 113.863281 C 28.554688 114.023438 27 115.652344 27 117.664062 C 27 119.78125 28.714844 121.5 30.835938 121.5 C 31.015625 121.5 31.1875 121.46875 31.359375 121.445312 C 31.433594 121.699219 31.492188 121.9375 31.570312 122.199219 C 35.8125 124.203125 40.339844 125.804688 45.046875 126.964844 C 45.296875 132.542969 49.863281 137 55.503906 137 C 55.882812 137 56.238281 136.929688 56.609375 136.886719 C 60.984375 144.136719 68.914062 149 78 149 C 91.808594 149 103 137.808594 103 124 C 103 110.191406 91.808594 99 78 99 Z M 78 99 "/>
<path style=" stroke:none;fill-rule:nonzero;fill:rgb(24.313726%,24.313726%,24.313726%);fill-opacity:1;" d="M 128.425781 86.433594 L 126.507812 85.859375 C 126.535156 85.765625 129.015625 77.433594 129.714844 72.007812 C 129.378906 72.546875 129.03125 73.132812 128.707031 73.675781 C 125.105469 79.703125 122.109375 84.269531 119.21875 83.523438 C 116.289062 82.785156 116.210938 76.992188 116.136719 71.394531 C 116.117188 69.878906 116.089844 67.960938 115.957031 66.800781 C 114.152344 69.839844 112.058594 78.421875 111.375 81.621094 L 109.417969 81.203125 C 109.527344 80.691406 112.113281 68.6875 114.59375 65.230469 C 114.84375 64.886719 115.609375 63.832031 116.648438 64.164062 C 117.988281 64.585938 118.070312 66.554688 118.132812 71.371094 C 118.175781 74.570312 118.265625 81.222656 119.703125 81.585938 C 121.40625 82.035156 125.316406 75.449219 126.988281 72.648438 C 129.183594 68.984375 129.816406 67.878906 130.988281 68.203125 C 131.605469 68.378906 131.90625 68.925781 131.890625 69.828125 C 131.808594 75.050781 128.558594 85.96875 128.425781 86.433594 Z M 128.425781 86.433594 "/>
<path style=" stroke:none;fill-rule:nonzero;fill:rgb(24.313726%,24.313726%,24.313726%);fill-opacity:1;" d="M 88.003906 127.710938 C 87.761719 122.519531 86.15625 118.597656 82.957031 115.371094 L 84.378906 113.960938 C 87.949219 117.5625 89.734375 121.902344 90 127.617188 Z M 88.003906 127.710938 "/>
<path style=" stroke:none;fill-rule:nonzero;fill:rgb(24.313726%,24.313726%,24.313726%);fill-opacity:1;" d="M 63.0625 130 C 51.746094 130 40.40625 127.441406 28.71875 122 L 29.5625 120.1875 C 49.878906 129.644531 68.921875 130.523438 89.28125 123.203125 C 89.28125 123.203125 89.632812 125.199219 89.472656 125.257812 C 80.480469 128.4375 71.75 130 63.0625 130 Z M 63.0625 130 "/>
<path style=" stroke:none;fill-rule:nonzero;fill:rgb(72.941178%,10.196079%,100%);fill-opacity:1;" d="M 67.707031 151.027344 L 68.214844 156 L 128.21875 156 L 125.59375 152.40625 L 96.277344 152.125 Z M 67.707031 151.027344 "/>
<path style=" stroke:none;fill-rule:nonzero;fill:rgb(24.313726%,24.313726%,24.313726%);fill-opacity:1;" d="M 109.195312 27.011719 L 107.316406 26.332031 C 109.660156 19.855469 106.128906 10.058594 98.066406 7.140625 C 93.703125 5.5625 88.855469 5.617188 84.761719 7.285156 L 84.007812 5.433594 C 88.550781 3.578125 93.929688 3.511719 98.746094 5.261719 C 107.867188 8.558594 111.855469 19.664062 109.195312 27.011719 Z M 109.195312 27.011719 "/>
<path style=" stroke:none;fill-rule:nonzero;fill:rgb(32.549021%,32.549021%,32.549021%);fill-opacity:1;" d="M 115.003906 110.003906 C 114.648438 110.003906 114.292969 109.980469 113.933594 109.9375 C 113.519531 109.886719 113.121094 109.8125 112.734375 109.710938 L 113.238281 107.777344 C 113.542969 107.855469 113.855469 107.914062 114.175781 107.953125 C 117.984375 108.402344 121.492188 105.660156 121.953125 101.828125 C 122.410156 98 119.660156 94.507812 115.828125 94.046875 C 113.691406 93.792969 111.59375 94.515625 110.066406 96.035156 L 108.65625 94.613281 C 110.621094 92.664062 113.316406 91.742188 116.066406 92.0625 C 120.992188 92.652344 124.523438 97.140625 123.9375 102.066406 C 123.386719 106.632812 119.492188 110.003906 115.003906 110.003906 Z M 115.003906 110.003906 "/>
<path style=" stroke:none;fill-rule:nonzero;fill:rgb(72.941178%,10.196079%,100%);fill-opacity:1;" d="M 122.035156 101.054688 C 122.035156 104.964844 118.867188 108.132812 114.957031 108.132812 C 111.050781 108.132812 107.878906 104.964844 107.878906 101.054688 C 107.878906 97.148438 111.050781 93.976562 114.957031 93.976562 C 118.867188 93.976562 122.035156 97.148438 122.035156 101.054688 Z M 122.035156 101.054688 "/>
<path style=" stroke:none;fill-rule:nonzero;fill:rgb(24.313726%,24.313726%,24.313726%);fill-opacity:1;" d="M 78 98 C 77.261719 98 76.488281 98.035156 75.703125 98.109375 C 70.6875 92.3125 63.460938 89 55.789062 89 C 42.128906 89 30.769531 99.484375 29.589844 113.019531 C 27.519531 113.570312 26 115.472656 26 117.667969 C 26 120.261719 28.050781 122.378906 30.617188 122.496094 L 30.746094 122.914062 C 30.746094 122.914062 39.925781 125.277344 44.058594 126.402344 C 44.410156 126.5 44.101562 127.191406 44.105469 127.761719 C 44.738281 133.558594 49.605469 138 55.5 138 C 55.703125 138 55.898438 137.984375 56.097656 137.960938 C 60.90625 145.515625 69.046875 150 78 150 C 92.335938 150 104 138.335938 104 124 C 104 109.664062 92.335938 98 78 98 Z M 78 148 C 69.539062 148 61.863281 143.652344 57.460938 136.371094 L 57.132812 135.828125 L 56.125 135.945312 C 55.921875 135.96875 55.710938 136 55.5 136 C 50.429688 136 46.273438 132.011719 46.042969 126.921875 L 46.011719 126.175781 L 45.285156 125.996094 C 40.804688 124.890625 36.472656 123.375 32.40625 121.484375 L 32.398438 121.464844 C 31.546875 121.109375 30.585938 120.683594 29.5625 120.1875 L 29.5625 120.183594 C 28.65625 119.714844 28 118.761719 28 117.667969 C 28 116.1875 29.121094 114.980469 30.609375 114.863281 L 31.480469 114.792969 L 31.527344 113.921875 C 32.265625 101.066406 42.921875 91 55.789062 91 C 63.042969 91 69.648438 93.988281 74.292969 99.574219 L 74.636719 99.988281 L 75.171875 100 C 76.25 100 77.15625 100 78 100 C 91.234375 100 102 110.765625 102 124 C 102 137.234375 91.234375 148 78 148 Z M 78 148 "/>
<path style=" stroke:none;fill-rule:nonzero;fill:rgb(100%,100%,100%);fill-opacity:1;" d="M 67 74 C 67 83.390625 59.390625 91 50 91 C 40.609375 91 33 83.390625 33 74 C 33 64.609375 40.609375 57 50 57 C 59.390625 57 67 64.609375 67 74 Z M 67 74 "/>
<path style=" stroke:none;fill-rule:nonzero;fill:rgb(23.529412%,23.529412%,23.529412%);fill-opacity:1;" d="M 50 92 C 40.074219 92 32 83.925781 32 74 C 32 64.074219 40.074219 56 50 56 C 59.925781 56 68 64.074219 68 74 C 68 83.925781 59.925781 92 50 92 Z M 50 58 C 41.179688 58 34 65.179688 34 74 C 34 82.820312 41.179688 90 50 90 C 58.820312 90 66 82.820312 66 74 C 66 65.179688 58.820312 58 50 58 Z M 50 58 "/>
<path style=" stroke:none;fill-rule:nonzero;fill:rgb(64.705884%,0%,74.509805%);fill-opacity:1;" d="M 53 74 C 53 75.65625 51.65625 77 50 77 C 48.34375 77 47 75.65625 47 74 C 47 72.34375 48.34375 71 50 71 C 51.65625 71 53 72.34375 53 74 Z M 53 74 "/>
<path style=" stroke:none;fill-rule:nonzero;fill:rgb(72.941178%,10.196079%,100%);fill-opacity:1;" d="M 76.484375 99 L 46.675781 99 C 42.453125 99 39 95.546875 39 91.324219 L 39 90.675781 C 39 86.453125 42.453125 83 46.675781 83 L 76.484375 83 Z M 76.484375 99 "/>
<path style=" stroke:none;fill-rule:nonzero;fill:rgb(32.549021%,32.549021%,32.549021%);fill-opacity:1;" d="M 75.480469 98 L 46.675781 98 C 42.992188 98 40 95.007812 40 91.324219 L 40 90.675781 C 40 86.992188 42.992188 84 46.675781 84 L 75.480469 84 L 75.480469 91.867188 L 77.480469 91.867188 L 77.480469 82 L 46.675781 82 C 41.890625 82 38 85.890625 38 90.675781 L 38 91.324219 C 38 96.109375 41.890625 100 46.675781 100 L 77.480469 100 L 77.480469 98 Z M 75.480469 98 "/>
<path style=" stroke:none;fill-rule:nonzero;fill:rgb(100%,100%,100%);fill-opacity:1;" d="M 103 75 C 103 86.046875 94.046875 95 83 95 C 71.953125 95 63 86.046875 63 75 C 63 63.953125 71.953125 55 83 55 C 94.046875 55 103 63.953125 103 75 Z M 103 75 "/>
<path style=" stroke:none;fill-rule:nonzero;fill:rgb(23.529412%,23.529412%,23.529412%);fill-opacity:1;" d="M 83 96 C 71.421875 96 62 86.578125 62 75 C 62 63.421875 71.421875 54 83 54 C 94.578125 54 104 63.421875 104 75 C 104 86.578125 94.578125 96 83 96 Z M 83 56 C 72.523438 56 64 64.523438 64 75 C 64 85.476562 72.523438 94 83 94 C 93.476562 94 102 85.476562 102 75 C 102 64.523438 93.476562 56 83 56 Z M 83 56 "/>
<path style=" stroke:none;fill-rule:nonzero;fill:rgb(64.705884%,0%,74.509805%);fill-opacity:1;" d="M 91 74 C 91 75.65625 89.65625 77 88 77 C 86.34375 77 85 75.65625 85 74 C 85 72.34375 86.34375 71 88 71 C 89.65625 71 91 72.34375 91 74 Z M 91 74 "/>
</g>
</svg>
