<?xml version="1.0" encoding="UTF-8"?>
<svg xmlns="http://www.w3.org/2000/svg" xmlns:xlink="http://www.w3.org/1999/xlink" viewBox="0 0 480 480" width="480px" height="480px">
<g id="surface7340503">
<path style=" stroke:none;fill-rule:nonzero;fill:rgb(24.313726%,24.313726%,24.313726%);fill-opacity:1;" d="M 327.589844 81.035156 L 321.953125 78.996094 C 328.980469 59.5625 318.382812 30.175781 294.203125 21.421875 C 269.808594 12.589844 241.445312 21.605469 234.671875 40.3125 L 229.039062 38.273438 C 236.878906 16.609375 268.925781 5.886719 296.242188 15.78125 C 323.605469 25.679688 335.5625 58.992188 327.589844 81.035156 Z M 327.589844 81.035156 "/>
<path style=" stroke:none;fill-rule:nonzero;fill:rgb(72.941178%,10.196079%,100%);fill-opacity:1;" d="M 348.367188 285 L 345.125 285 L 382.476562 167.398438 C 398.527344 116.867188 370.570312 62.890625 320.039062 46.847656 L 271.816406 31.53125 C 221.28125 15.480469 167.304688 43.433594 151.253906 93.964844 L 134.542969 146.585938 C 124.511719 148.847656 117 157.78125 117 168.496094 C 117 175.410156 120.1875 181.519531 125.09375 185.644531 C 122.113281 228.804688 148.660156 270.023438 191.722656 283.699219 L 195.808594 284.992188 L 151.367188 284.992188 C 180.863281 338.605469 195.042969 399.847656 201.367188 464.992188 L 386.363281 464.992188 C 361.296875 432.484375 339.515625 395.765625 339 349.992188 C 338.777344 330.097656 342.820312 308.574219 348.367188 285 Z M 348.367188 285 "/>
<path style=" stroke:none;fill-rule:nonzero;fill:rgb(32.549021%,32.549021%,32.549021%);fill-opacity:1;" d="M 392.460938 468 L 198.636719 468 L 198.371094 465.289062 C 191.339844 392.878906 175.105469 334.378906 148.734375 286.445312 L 146.292969 282 L 179.070312 282 C 142.65625 265.152344 119.785156 227.789062 122.011719 186.910156 C 116.898438 182.082031 114 175.453125 114 168.496094 C 114 157.105469 121.390625 147.3125 132.179688 144.109375 L 148.390625 93.058594 C 161.515625 51.75 199.421875 24 242.730469 24 C 252.871094 24 262.960938 25.570312 272.71875 28.667969 L 320.941406 43.984375 C 372.964844 60.511719 401.851562 116.28125 385.324219 168.3125 L 349.222656 282 L 352.144531 282 L 351.277344 285.683594 C 346.324219 306.78125 341.765625 329.160156 342 349.960938 C 342.527344 396.984375 365.921875 433.578125 388.734375 463.164062 Z M 204.085938 462 L 380.304688 462 C 358.117188 432.480469 336.523438 396.265625 336 350.035156 C 335.773438 329.8125 339.882812 308.375 344.585938 288 L 341.023438 288 L 379.613281 166.492188 C 395.136719 117.617188 367.996094 65.226562 319.128906 49.703125 L 270.898438 34.386719 C 261.730469 31.476562 252.253906 30 242.730469 30 C 202.050781 30 166.433594 56.070312 154.109375 94.878906 L 136.878906 149.140625 L 135.203125 149.519531 C 126.253906 151.535156 120 159.34375 120 168.496094 C 120 174.179688 122.5625 179.605469 127.027344 183.355469 L 128.191406 184.339844 L 128.082031 185.855469 C 125.117188 228.773438 151.65625 267.835938 192.625 280.84375 L 215.136719 288 L 156.390625 288 C 181.429688 335.195312 197.050781 392.214844 204.085938 462 Z M 204.085938 462 "/>
<path style=" stroke:none;fill-rule:nonzero;fill:rgb(90.588236%,75.294119%,68.235296%);fill-opacity:1;" d="M 234 297 C 231.238281 297 228.515625 297.175781 225.835938 297.460938 C 211.890625 280.6875 190.878906 270 167.363281 270 C 126.875 270 93.882812 301.679688 91.585938 341.59375 C 85.667969 342.066406 81 346.960938 81 352.996094 C 81 359.347656 86.148438 364.5 92.503906 364.5 C 93.042969 364.5 93.558594 364.410156 94.078125 364.339844 C 94.296875 365.09375 94.476562 365.8125 94.714844 366.59375 C 107.4375 372.605469 121.015625 377.417969 135.144531 380.898438 C 135.894531 397.632812 149.585938 411 166.507812 411 C 167.644531 411 168.71875 410.785156 169.828125 410.664062 C 182.953125 432.414062 206.742188 447 234 447 C 275.425781 447 309 413.425781 309 372 C 309 330.574219 275.425781 297 234 297 Z M 234 297 "/>
<path style=" stroke:none;fill-rule:nonzero;fill:rgb(24.313726%,24.313726%,24.313726%);fill-opacity:1;" d="M 385.273438 259.300781 L 379.519531 257.578125 C 379.609375 257.292969 387.046875 232.296875 389.140625 216.019531 C 388.140625 217.644531 387.089844 219.402344 386.125 221.023438 C 375.3125 239.113281 366.324219 252.804688 357.652344 250.566406 C 348.863281 248.359375 348.636719 230.980469 348.40625 214.1875 C 348.347656 209.640625 348.269531 203.886719 347.875 200.40625 C 342.460938 209.515625 336.179688 235.265625 334.128906 244.859375 L 328.253906 243.605469 C 328.585938 242.074219 336.335938 206.0625 343.78125 195.695312 C 344.527344 194.664062 346.824219 191.496094 349.949219 192.496094 C 353.96875 193.757812 354.210938 199.667969 354.402344 214.117188 C 354.527344 223.710938 354.796875 243.671875 359.113281 244.753906 C 364.222656 246.109375 375.949219 226.351562 380.96875 217.949219 C 387.546875 206.957031 389.453125 203.640625 392.96875 204.605469 C 394.8125 205.132812 395.71875 206.773438 395.675781 209.488281 C 395.429688 225.15625 385.679688 257.910156 385.273438 259.300781 Z M 385.273438 259.300781 "/>
<path style=" stroke:none;fill-rule:nonzero;fill:rgb(24.313726%,24.313726%,24.313726%);fill-opacity:1;" d="M 264.007812 383.136719 C 263.285156 367.554688 258.472656 355.789062 248.867188 346.109375 L 253.132812 341.878906 C 263.84375 352.6875 269.207031 365.707031 270 382.855469 Z M 264.007812 383.136719 "/>
<path style=" stroke:none;fill-rule:nonzero;fill:rgb(24.313726%,24.313726%,24.313726%);fill-opacity:1;" d="M 189.1875 390 C 155.238281 390 121.222656 382.324219 86.152344 366 L 88.6875 360.5625 C 149.640625 388.9375 206.761719 391.570312 267.847656 369.605469 C 267.847656 369.605469 268.902344 375.601562 268.414062 375.773438 C 241.441406 385.308594 215.25 390 189.1875 390 Z M 189.1875 390 "/>
<path style=" stroke:none;fill-rule:nonzero;fill:rgb(72.941178%,10.196079%,100%);fill-opacity:1;" d="M 203.117188 453.085938 L 204.648438 468 L 384.652344 468 L 376.78125 457.21875 L 288.835938 456.371094 Z M 203.117188 453.085938 "/>
<path style=" stroke:none;fill-rule:nonzero;fill:rgb(24.313726%,24.313726%,24.313726%);fill-opacity:1;" d="M 327.589844 81.035156 L 321.953125 78.996094 C 328.980469 59.5625 318.382812 30.175781 294.203125 21.421875 C 281.113281 16.6875 266.566406 16.847656 254.285156 21.851562 L 252.023438 16.296875 C 265.648438 10.734375 281.785156 10.535156 296.242188 15.78125 C 323.605469 25.679688 335.5625 58.992188 327.589844 81.035156 Z M 327.589844 81.035156 "/>
<path style=" stroke:none;fill-rule:nonzero;fill:rgb(32.549021%,32.549021%,32.549021%);fill-opacity:1;" d="M 345.011719 330.007812 C 343.949219 330.007812 342.882812 329.941406 341.796875 329.8125 C 340.558594 329.664062 339.367188 329.4375 338.207031 329.136719 L 339.71875 323.335938 C 340.625 323.566406 341.566406 323.742188 342.523438 323.863281 C 353.953125 325.210938 364.476562 316.984375 365.855469 305.488281 C 367.230469 294 358.984375 283.523438 347.484375 282.144531 C 341.074219 281.375 334.78125 283.546875 330.199219 288.101562 L 325.96875 283.835938 C 331.859375 277.996094 339.949219 275.226562 348.199219 276.191406 C 362.980469 277.960938 373.570312 291.425781 371.808594 306.203125 C 370.164062 319.902344 358.480469 330.007812 345.011719 330.007812 Z M 345.011719 330.007812 "/>
<path style=" stroke:none;fill-rule:nonzero;fill:rgb(72.941178%,10.196079%,100%);fill-opacity:1;" d="M 366.109375 303.167969 C 366.109375 314.894531 356.601562 324.402344 344.875 324.402344 C 333.148438 324.402344 323.640625 314.894531 323.640625 303.167969 C 323.640625 291.441406 333.148438 281.933594 344.875 281.933594 C 356.601562 281.933594 366.109375 291.441406 366.109375 303.167969 Z M 366.109375 303.167969 "/>
<path style=" stroke:none;fill-rule:nonzero;fill:rgb(24.313726%,24.313726%,24.313726%);fill-opacity:1;" d="M 234 294 C 231.78125 294 229.464844 294.109375 227.105469 294.324219 C 212.058594 276.941406 190.378906 267 167.363281 267 C 126.382812 267 92.308594 298.457031 88.765625 339.054688 C 82.558594 340.714844 78 346.414062 78 353.003906 C 78 360.78125 84.15625 367.140625 91.855469 367.488281 L 92.238281 368.742188 C 92.238281 368.742188 119.773438 375.835938 132.179688 379.210938 C 133.230469 379.5 132.300781 381.570312 132.3125 383.285156 C 134.214844 400.679688 148.816406 414 166.5 414 C 167.113281 414 167.699219 413.953125 168.289062 413.878906 C 182.722656 436.542969 207.144531 450 234 450 C 277.007812 450 312 415.007812 312 372 C 312 328.992188 277.007812 294 234 294 Z M 234 444 C 208.613281 444 185.585938 430.957031 172.386719 409.117188 L 171.402344 407.488281 L 168.371094 407.832031 C 167.761719 407.902344 167.136719 408 166.5 408 C 151.285156 408 138.820312 396.035156 138.132812 380.765625 L 138.03125 378.523438 L 135.851562 377.988281 C 122.410156 374.675781 109.421875 370.121094 97.222656 364.457031 L 97.199219 364.390625 C 94.636719 363.328125 91.757812 362.050781 88.6875 360.5625 L 88.691406 360.546875 C 85.96875 359.140625 84 356.285156 84 353.003906 C 84 348.5625 87.367188 344.941406 91.828125 344.585938 L 94.441406 344.382812 L 94.585938 341.765625 C 96.796875 303.203125 128.765625 273 167.363281 273 C 189.125 273 208.949219 281.964844 222.875 298.726562 L 223.90625 299.96875 L 225.511719 300 C 228.75 300 231.46875 300 234 300 C 273.703125 300 306 332.296875 306 372 C 306 411.703125 273.703125 444 234 444 Z M 234 444 "/>
<path style=" stroke:none;fill-rule:nonzero;fill:rgb(100%,100%,100%);fill-opacity:1;" d="M 201 222 C 201 250.167969 178.167969 273 150 273 C 121.832031 273 99 250.167969 99 222 C 99 193.832031 121.832031 171 150 171 C 178.167969 171 201 193.832031 201 222 Z M 201 222 "/>
<path style=" stroke:none;fill-rule:nonzero;fill:rgb(23.529412%,23.529412%,23.529412%);fill-opacity:1;" d="M 150 276 C 120.222656 276 96 251.777344 96 222 C 96 192.222656 120.222656 168 150 168 C 179.777344 168 204 192.222656 204 222 C 204 251.777344 179.777344 276 150 276 Z M 150 174 C 123.535156 174 102 195.535156 102 222 C 102 248.464844 123.535156 270 150 270 C 176.464844 270 198 248.464844 198 222 C 198 195.535156 176.464844 174 150 174 Z M 150 174 "/>
<path style=" stroke:none;fill-rule:nonzero;fill:rgb(64.705884%,0%,74.509805%);fill-opacity:1;" d="M 159 222 C 159 226.96875 154.96875 231 150 231 C 145.03125 231 141 226.96875 141 222 C 141 217.03125 145.03125 213 150 213 C 154.96875 213 159 217.03125 159 222 Z M 159 222 "/>
<path style=" stroke:none;fill-rule:nonzero;fill:rgb(72.941178%,10.196079%,100%);fill-opacity:1;" d="M 229.453125 297 L 140.023438 297 C 127.363281 297 117 286.636719 117 273.976562 L 117 272.023438 C 117 259.363281 127.363281 249 140.023438 249 L 229.453125 249 Z M 229.453125 297 "/>
<path style=" stroke:none;fill-rule:nonzero;fill:rgb(32.549021%,32.549021%,32.549021%);fill-opacity:1;" d="M 226.445312 294 L 140.023438 294 C 128.980469 294 120 285.019531 120 273.976562 L 120 272.023438 C 120 260.980469 128.980469 252 140.023438 252 L 226.445312 252 L 226.445312 275.597656 L 232.445312 275.597656 L 232.445312 246 L 140.023438 246 C 125.671875 246 114 257.671875 114 272.023438 L 114 273.976562 C 114 288.328125 125.671875 300 140.023438 300 L 232.445312 300 L 232.445312 294 Z M 226.445312 294 "/>
<path style=" stroke:none;fill-rule:nonzero;fill:rgb(100%,100%,100%);fill-opacity:1;" d="M 309 225 C 309 258.136719 282.136719 285 249 285 C 215.863281 285 189 258.136719 189 225 C 189 191.863281 215.863281 165 249 165 C 282.136719 165 309 191.863281 309 225 Z M 309 225 "/>
<path style=" stroke:none;fill-rule:nonzero;fill:rgb(23.529412%,23.529412%,23.529412%);fill-opacity:1;" d="M 249 288 C 214.261719 288 186 259.738281 186 225 C 186 190.261719 214.261719 162 249 162 C 283.738281 162 312 190.261719 312 225 C 312 259.738281 283.738281 288 249 288 Z M 249 168 C 217.570312 168 192 193.570312 192 225 C 192 256.429688 217.570312 282 249 282 C 280.429688 282 306 256.429688 306 225 C 306 193.570312 280.429688 168 249 168 Z M 249 168 "/>
<path style=" stroke:none;fill-rule:nonzero;fill:rgb(64.705884%,0%,74.509805%);fill-opacity:1;" d="M 273 222 C 273 226.96875 268.96875 231 264 231 C 259.03125 231 255 226.96875 255 222 C 255 217.03125 259.03125 213 264 213 C 268.96875 213 273 217.03125 273 222 Z M 273 222 "/>
</g>
</svg>
