<?xml version="1.0" encoding="UTF-8"?>
<svg xmlns="http://www.w3.org/2000/svg" xmlns:xlink="http://www.w3.org/1999/xlink" viewBox="0 0 30 30" width="30px" height="30px">
<g id="surface7340482">
<path style=" stroke:none;fill-rule:nonzero;fill:rgb(24.313726%,24.313726%,24.313726%);fill-opacity:1;" d="M 20.472656 5.066406 L 20.121094 4.9375 C 20.5625 3.722656 19.898438 1.886719 18.386719 1.339844 C 16.863281 0.785156 15.089844 1.351562 14.667969 2.519531 L 14.316406 2.390625 C 14.804688 1.039062 16.808594 0.367188 18.515625 0.984375 C 20.226562 1.605469 20.972656 3.6875 20.472656 5.066406 Z M 20.472656 5.066406 "/>
<path style=" stroke:none;fill-rule:nonzero;fill:rgb(72.941178%,10.196079%,100%);fill-opacity:1;" d="M 21.773438 17.8125 L 21.570312 17.8125 L 23.90625 10.460938 C 24.90625 7.304688 23.160156 3.929688 20.003906 2.929688 L 16.988281 1.96875 C 13.828125 0.96875 10.457031 2.714844 9.453125 5.871094 L 8.410156 9.160156 C 7.78125 9.304688 7.3125 9.863281 7.3125 10.53125 C 7.3125 10.964844 7.511719 11.34375 7.820312 11.601562 C 7.632812 14.300781 9.292969 16.875 11.984375 17.730469 L 12.238281 17.8125 L 9.460938 17.8125 C 11.304688 21.164062 12.191406 24.992188 12.585938 29.0625 L 24.148438 29.0625 C 22.582031 27.03125 21.21875 24.734375 21.1875 21.875 C 21.171875 20.632812 21.425781 19.285156 21.773438 17.8125 Z M 21.773438 17.8125 "/>
<path style=" stroke:none;fill-rule:nonzero;fill:rgb(32.549021%,32.549021%,32.549021%);fill-opacity:1;" d="M 24.527344 29.25 L 12.414062 29.25 L 12.398438 29.082031 C 11.957031 24.554688 10.945312 20.898438 9.296875 17.902344 L 9.144531 17.625 L 11.191406 17.625 C 8.914062 16.570312 7.488281 14.238281 7.625 11.683594 C 7.304688 11.378906 7.125 10.964844 7.125 10.53125 C 7.125 9.820312 7.585938 9.207031 8.261719 9.007812 L 9.273438 5.816406 C 10.09375 3.234375 12.464844 1.5 15.171875 1.5 C 15.804688 1.5 16.433594 1.597656 17.042969 1.792969 L 20.058594 2.75 C 23.308594 3.78125 25.117188 7.265625 24.082031 10.519531 L 21.828125 17.625 L 22.007812 17.625 L 21.953125 17.855469 C 21.644531 19.171875 21.359375 20.574219 21.375 21.871094 C 21.40625 24.8125 22.871094 27.097656 24.296875 28.949219 Z M 12.753906 28.875 L 23.769531 28.875 C 22.382812 27.03125 21.03125 24.765625 21 21.878906 C 20.984375 20.613281 21.242188 19.273438 21.535156 18 L 21.3125 18 L 23.726562 10.40625 C 24.695312 7.351562 23 4.078125 19.945312 3.105469 L 16.929688 2.148438 C 16.359375 1.96875 15.765625 1.875 15.171875 1.875 C 12.628906 1.875 10.402344 3.503906 9.632812 5.929688 L 8.554688 9.320312 L 8.449219 9.34375 C 7.890625 9.472656 7.5 9.957031 7.5 10.53125 C 7.5 10.886719 7.660156 11.226562 7.9375 11.460938 L 8.011719 11.519531 L 8.003906 11.617188 C 7.820312 14.296875 9.476562 16.738281 12.039062 17.550781 L 13.445312 18 L 9.773438 18 C 11.339844 20.949219 12.316406 24.511719 12.753906 28.875 Z M 12.753906 28.875 "/>
<path style=" stroke:none;fill-rule:nonzero;fill:rgb(90.588236%,75.294119%,68.235296%);fill-opacity:1;" d="M 14.625 18.5625 C 14.453125 18.5625 14.28125 18.574219 14.113281 18.589844 C 13.242188 17.542969 11.929688 16.875 10.460938 16.875 C 7.929688 16.875 5.867188 18.855469 5.722656 21.347656 C 5.355469 21.378906 5.0625 21.683594 5.0625 22.0625 C 5.0625 22.460938 5.382812 22.78125 5.78125 22.78125 C 5.816406 22.78125 5.847656 22.777344 5.878906 22.769531 C 5.894531 22.820312 5.90625 22.863281 5.917969 22.914062 C 6.714844 23.289062 7.5625 23.589844 8.445312 23.804688 C 8.492188 24.851562 9.347656 25.6875 10.40625 25.6875 C 10.476562 25.6875 10.546875 25.675781 10.613281 25.667969 C 11.433594 27.027344 12.921875 27.9375 14.625 27.9375 C 17.214844 27.9375 19.3125 25.839844 19.3125 23.25 C 19.3125 20.660156 17.214844 18.5625 14.625 18.5625 Z M 14.625 18.5625 "/>
<path style=" stroke:none;fill-rule:nonzero;fill:rgb(24.313726%,24.313726%,24.313726%);fill-opacity:1;" d="M 24.078125 16.207031 L 23.71875 16.097656 C 23.726562 16.082031 24.191406 14.519531 24.320312 13.5 C 24.257812 13.601562 24.191406 13.710938 24.132812 13.8125 C 23.457031 14.945312 22.894531 15.800781 22.351562 15.660156 C 21.804688 15.523438 21.789062 14.4375 21.777344 13.386719 C 21.773438 13.101562 21.765625 12.742188 21.742188 12.523438 C 21.402344 13.09375 21.011719 14.703125 20.882812 15.304688 L 20.515625 15.226562 C 20.535156 15.128906 21.019531 12.878906 21.488281 12.230469 C 21.53125 12.167969 21.675781 11.96875 21.871094 12.03125 C 22.125 12.109375 22.136719 12.480469 22.148438 13.382812 C 22.15625 13.980469 22.175781 15.230469 22.445312 15.296875 C 22.765625 15.382812 23.496094 14.148438 23.8125 13.621094 C 24.222656 12.933594 24.339844 12.726562 24.5625 12.789062 C 24.675781 12.820312 24.730469 12.921875 24.730469 13.09375 C 24.714844 14.070312 24.105469 16.121094 24.078125 16.207031 Z M 24.078125 16.207031 "/>
<path style=" stroke:none;fill-rule:nonzero;fill:rgb(24.313726%,24.313726%,24.313726%);fill-opacity:1;" d="M 16.5 23.945312 C 16.457031 22.972656 16.15625 22.238281 15.554688 21.632812 L 15.820312 21.367188 C 16.492188 22.042969 16.824219 22.855469 16.875 23.929688 Z M 16.5 23.945312 "/>
<path style=" stroke:none;fill-rule:nonzero;fill:rgb(24.313726%,24.313726%,24.313726%);fill-opacity:1;" d="M 11.824219 24.375 C 9.703125 24.375 7.578125 23.894531 5.382812 22.875 L 5.542969 22.535156 C 9.351562 24.308594 12.921875 24.472656 16.742188 23.101562 C 16.742188 23.101562 16.804688 23.476562 16.777344 23.484375 C 15.089844 24.082031 13.453125 24.375 11.824219 24.375 Z M 11.824219 24.375 "/>
<path style=" stroke:none;fill-rule:nonzero;fill:rgb(72.941178%,10.196079%,100%);fill-opacity:1;" d="M 12.695312 28.316406 L 12.789062 29.25 L 24.039062 29.25 L 23.550781 28.574219 L 18.050781 28.523438 Z M 12.695312 28.316406 "/>
<path style=" stroke:none;fill-rule:nonzero;fill:rgb(24.313726%,24.313726%,24.313726%);fill-opacity:1;" d="M 20.472656 5.066406 L 20.121094 4.9375 C 20.5625 3.722656 19.898438 1.886719 18.386719 1.339844 C 17.570312 1.042969 16.660156 1.054688 15.894531 1.367188 L 15.75 1.019531 C 16.601562 0.671875 17.613281 0.660156 18.515625 0.984375 C 20.226562 1.605469 20.972656 3.6875 20.472656 5.066406 Z M 20.472656 5.066406 "/>
<path style=" stroke:none;fill-rule:nonzero;fill:rgb(32.549021%,32.549021%,32.549021%);fill-opacity:1;" d="M 21.5625 20.625 C 21.496094 20.625 21.429688 20.621094 21.363281 20.613281 C 21.285156 20.605469 21.210938 20.589844 21.136719 20.570312 L 21.234375 20.207031 C 21.289062 20.222656 21.347656 20.234375 21.40625 20.242188 C 22.121094 20.324219 22.78125 19.8125 22.867188 19.09375 C 22.953125 18.375 22.4375 17.71875 21.71875 17.632812 C 21.316406 17.585938 20.925781 17.722656 20.636719 18.007812 L 20.371094 17.738281 C 20.742188 17.375 21.246094 17.203125 21.761719 17.261719 C 22.6875 17.371094 23.347656 18.214844 23.238281 19.136719 C 23.136719 19.992188 22.40625 20.625 21.5625 20.625 Z M 21.5625 20.625 "/>
<path style=" stroke:none;fill-rule:nonzero;fill:rgb(72.941178%,10.196079%,100%);fill-opacity:1;" d="M 22.882812 18.949219 C 22.882812 19.679688 22.289062 20.273438 21.554688 20.273438 C 20.820312 20.273438 20.226562 19.679688 20.226562 18.949219 C 20.226562 18.214844 20.820312 17.621094 21.554688 17.621094 C 22.289062 17.621094 22.882812 18.214844 22.882812 18.949219 Z M 22.882812 18.949219 "/>
<path style=" stroke:none;fill-rule:nonzero;fill:rgb(24.313726%,24.313726%,24.313726%);fill-opacity:1;" d="M 14.625 18.375 C 14.484375 18.375 14.339844 18.382812 14.195312 18.394531 C 13.253906 17.308594 11.898438 16.6875 10.460938 16.6875 C 7.898438 16.6875 5.769531 18.652344 5.546875 21.191406 C 5.160156 21.292969 4.875 21.652344 4.875 22.0625 C 4.875 22.546875 5.257812 22.945312 5.742188 22.96875 L 5.765625 23.046875 C 5.765625 23.046875 7.484375 23.488281 8.261719 23.699219 C 8.328125 23.71875 8.269531 23.847656 8.269531 23.957031 C 8.386719 25.042969 9.300781 25.875 10.40625 25.875 C 10.445312 25.875 10.480469 25.871094 10.519531 25.867188 C 11.421875 27.285156 12.945312 28.125 14.625 28.125 C 17.3125 28.125 19.5 25.9375 19.5 23.25 C 19.5 20.5625 17.3125 18.375 14.625 18.375 Z M 14.625 27.75 C 13.039062 27.75 11.597656 26.933594 10.773438 25.570312 L 10.710938 25.46875 L 10.523438 25.488281 C 10.484375 25.492188 10.445312 25.5 10.40625 25.5 C 9.457031 25.5 8.675781 24.753906 8.632812 23.796875 L 8.625 23.65625 L 8.492188 23.625 C 7.652344 23.417969 6.839844 23.132812 6.078125 22.777344 L 6.074219 22.773438 C 5.914062 22.707031 5.734375 22.628906 5.542969 22.535156 C 5.371094 22.445312 5.25 22.269531 5.25 22.0625 C 5.25 21.785156 5.460938 21.558594 5.738281 21.535156 L 5.902344 21.523438 L 5.910156 21.359375 C 6.050781 18.949219 8.046875 17.0625 10.460938 17.0625 C 11.820312 17.0625 13.058594 17.621094 13.929688 18.671875 L 13.996094 18.75 L 14.09375 18.75 C 14.296875 18.75 14.464844 18.75 14.625 18.75 C 17.105469 18.75 19.125 20.769531 19.125 23.25 C 19.125 25.730469 17.105469 27.75 14.625 27.75 Z M 14.625 27.75 "/>
<path style=" stroke:none;fill-rule:nonzero;fill:rgb(100%,100%,100%);fill-opacity:1;" d="M 12.5625 13.875 C 12.5625 15.636719 11.136719 17.0625 9.375 17.0625 C 7.613281 17.0625 6.1875 15.636719 6.1875 13.875 C 6.1875 12.113281 7.613281 10.6875 9.375 10.6875 C 11.136719 10.6875 12.5625 12.113281 12.5625 13.875 Z M 12.5625 13.875 "/>
<path style=" stroke:none;fill-rule:nonzero;fill:rgb(23.529412%,23.529412%,23.529412%);fill-opacity:1;" d="M 9.375 17.25 C 7.515625 17.25 6 15.734375 6 13.875 C 6 12.015625 7.515625 10.5 9.375 10.5 C 11.234375 10.5 12.75 12.015625 12.75 13.875 C 12.75 15.734375 11.234375 17.25 9.375 17.25 Z M 9.375 10.875 C 7.722656 10.875 6.375 12.222656 6.375 13.875 C 6.375 15.527344 7.722656 16.875 9.375 16.875 C 11.027344 16.875 12.375 15.527344 12.375 13.875 C 12.375 12.222656 11.027344 10.875 9.375 10.875 Z M 9.375 10.875 "/>
<path style=" stroke:none;fill-rule:nonzero;fill:rgb(64.705884%,0%,74.509805%);fill-opacity:1;" d="M 9.9375 13.875 C 9.9375 14.1875 9.6875 14.4375 9.375 14.4375 C 9.0625 14.4375 8.8125 14.1875 8.8125 13.875 C 8.8125 13.5625 9.0625 13.3125 9.375 13.3125 C 9.6875 13.3125 9.9375 13.5625 9.9375 13.875 Z M 9.9375 13.875 "/>
<path style=" stroke:none;fill-rule:nonzero;fill:rgb(72.941178%,10.196079%,100%);fill-opacity:1;" d="M 14.339844 18.5625 L 8.75 18.5625 C 7.960938 18.5625 7.3125 17.914062 7.3125 17.125 L 7.3125 17 C 7.3125 16.210938 7.960938 15.5625 8.75 15.5625 L 14.339844 15.5625 Z M 14.339844 18.5625 "/>
<path style=" stroke:none;fill-rule:nonzero;fill:rgb(32.549021%,32.549021%,32.549021%);fill-opacity:1;" d="M 14.152344 18.375 L 8.75 18.375 C 8.0625 18.375 7.5 17.8125 7.5 17.125 L 7.5 17 C 7.5 16.3125 8.0625 15.75 8.75 15.75 L 14.152344 15.75 L 14.152344 17.226562 L 14.527344 17.226562 L 14.527344 15.375 L 8.75 15.375 C 7.855469 15.375 7.125 16.105469 7.125 17 L 7.125 17.125 C 7.125 18.019531 7.855469 18.75 8.75 18.75 L 14.527344 18.75 L 14.527344 18.375 Z M 14.152344 18.375 "/>
<path style=" stroke:none;fill-rule:nonzero;fill:rgb(100%,100%,100%);fill-opacity:1;" d="M 19.3125 14.0625 C 19.3125 16.132812 17.632812 17.8125 15.5625 17.8125 C 13.492188 17.8125 11.8125 16.132812 11.8125 14.0625 C 11.8125 11.992188 13.492188 10.3125 15.5625 10.3125 C 17.632812 10.3125 19.3125 11.992188 19.3125 14.0625 Z M 19.3125 14.0625 "/>
<path style=" stroke:none;fill-rule:nonzero;fill:rgb(23.529412%,23.529412%,23.529412%);fill-opacity:1;" d="M 15.5625 18 C 13.390625 18 11.625 16.234375 11.625 14.0625 C 11.625 11.890625 13.390625 10.125 15.5625 10.125 C 17.734375 10.125 19.5 11.890625 19.5 14.0625 C 19.5 16.234375 17.734375 18 15.5625 18 Z M 15.5625 10.5 C 13.597656 10.5 12 12.097656 12 14.0625 C 12 16.027344 13.597656 17.625 15.5625 17.625 C 17.527344 17.625 19.125 16.027344 19.125 14.0625 C 19.125 12.097656 17.527344 10.5 15.5625 10.5 Z M 15.5625 10.5 "/>
<path style=" stroke:none;fill-rule:nonzero;fill:rgb(64.705884%,0%,74.509805%);fill-opacity:1;" d="M 17.0625 13.875 C 17.0625 14.1875 16.8125 14.4375 16.5 14.4375 C 16.1875 14.4375 15.9375 14.1875 15.9375 13.875 C 15.9375 13.5625 16.1875 13.3125 16.5 13.3125 C 16.8125 13.3125 17.0625 13.5625 17.0625 13.875 Z M 17.0625 13.875 "/>
</g>
</svg>
